<?xml version="1.0" standalone="no"?>
<!DOCTYPE svg PUBLIC "-//W3C//DTD SVG 20010904//EN"
 "http://www.w3.org/TR/2001/REC-SVG-20010904/DTD/svg10.dtd">
<svg version="1.0" xmlns="http://www.w3.org/2000/svg"
 width="1280.000000pt" height="972.000000pt" viewBox="0 0 1280.000000 972.000000"
 preserveAspectRatio="xMidYMid meet">
<g transform="translate(0.000000,972.000000) scale(0.100000,-0.100000)"
fill="#2196f3" stroke="none">
<path d="M6090 8324 c-210 -15 -510 -68 -696 -123 -135 -40 -362 -129 -511
-201 -863 -413 -1510 -1213 -1743 -2155 -59 -241 -100 -554 -100 -769 1 -747
262 -1495 722 -2067 1070 -1330 2982 -1615 4398 -655 451 306 833 742 1079
1233 418 836 463 1785 125 2655 -282 728 -805 1319 -1500 1698 -344 187 -729
312 -1129 365 -115 16 -523 27 -645 19z"/>
</g>
</svg>
